<svg width="22" height="22" viewBox="0 0 22 22" fill="none" xmlns="http://www.w3.org/2000/svg">
<path d="M11.0057 18.3257C10.576 18.3257 10.1531 18.1825 9.81883 17.896L8.74106 16.9751C8.63192 16.8796 8.35907 16.7841 8.21582 16.7841H7.02209C6.01254 16.7841 5.19398 15.9656 5.19398 14.956V13.7896C5.19398 13.6463 5.09848 13.3735 5.00981 13.2712L4.08211 12.1798C3.52276 11.5181 3.52276 10.4812 4.08211 9.81276L5.00981 8.72135C5.09848 8.61903 5.19398 8.34618 5.19398 8.20293V7.04331C5.19398 6.03375 6.01254 5.2152 7.02209 5.2152H8.20218C8.34543 5.2152 8.61146 5.11288 8.72742 5.01738L9.80519 4.0965C10.4737 3.53033 11.5173 3.53033 12.1858 4.0965L13.2636 5.01738C13.3727 5.11288 13.6524 5.20837 13.7957 5.20837H14.9553C15.9648 5.20837 16.7834 6.02693 16.7834 7.03648V8.19611C16.7834 8.33935 16.8857 8.60538 16.9812 8.72135L17.9021 9.79911C18.4751 10.4744 18.4682 11.5181 17.9021 12.1798L16.9812 13.2575C16.8857 13.3735 16.7902 13.6395 16.7902 13.7828V14.9424C16.7902 15.9519 15.9716 16.7705 14.9621 16.7705H13.8025C13.6592 16.7705 13.3932 16.8728 13.2704 16.9683L12.1926 17.8892C11.8584 18.1825 11.4287 18.3257 11.0057 18.3257ZM7.02209 6.23839C6.57871 6.23839 6.21718 6.59992 6.21718 7.04331V8.20293C6.21718 8.59174 6.03982 9.08288 5.78744 9.38301L4.85974 10.4744C4.62781 10.7541 4.62781 11.2452 4.85974 11.5181L5.78061 12.6027C6.02618 12.8823 6.21036 13.3939 6.21036 13.7828V14.9492C6.21036 15.3926 6.57189 15.7541 7.01527 15.7541H8.20218C8.58417 15.7541 9.08895 15.9383 9.38909 16.1907L10.4737 17.1184C10.7533 17.3571 11.2445 17.3571 11.5242 17.1184L12.6019 16.1975C12.9089 15.9383 13.4068 15.7609 13.7888 15.7609H14.9485C15.3918 15.7609 15.7534 15.3994 15.7534 14.956V13.7964C15.7534 13.4144 15.9375 12.9165 16.1899 12.6095L17.1176 11.5249C17.3564 11.2452 17.3564 10.7541 17.1176 10.4744L16.1968 9.39666C15.9375 9.0897 15.7602 8.59174 15.7602 8.20975V7.04331C15.7602 6.59992 15.3987 6.23839 14.9553 6.23839H13.7957C13.4068 6.23839 12.9021 6.05422 12.6019 5.80183L11.5173 4.87413C11.2377 4.63538 10.7533 4.63538 10.4669 4.87413L9.39591 5.80183C9.08895 6.05422 8.59099 6.23839 8.20218 6.23839H7.02209Z" fill="black"/>
<path d="M10.9989 14.3216C10.6237 14.3216 10.3168 14.0147 10.3168 13.6395C10.3168 13.2643 10.6169 12.9574 10.9989 12.9574C11.3741 12.9574 11.681 13.2643 11.681 13.6395C11.681 14.0147 11.3809 14.3216 10.9989 14.3216Z" fill="black"/>
<path d="M10.9989 12.1729C10.7192 12.1729 10.4873 11.941 10.4873 11.6613V8.35982C10.4873 8.08014 10.7192 7.84822 10.9989 7.84822C11.2786 7.84822 11.5105 8.08014 11.5105 8.35982V11.6545C11.5105 11.941 11.2854 12.1729 10.9989 12.1729Z" fill="black"/>
</svg>
