<svg width="23" height="22" viewBox="0 0 23 22" fill="none" xmlns="http://www.w3.org/2000/svg">
<rect width="22" height="22" transform="translate(0.25)" fill="#F6F6F6"/>
<path d="M17.6115 8.14118C16.412 8.88235 15.6712 10.1529 15.6712 11.5647C15.6712 13.1529 16.6237 14.6 18.0701 15.2C17.7878 16.1176 17.3645 16.9647 16.8354 17.7412C16.0593 18.8353 15.2479 19.9647 14.0485 19.9647C12.849 19.9647 12.4963 19.2588 11.0852 19.2588C9.70938 19.2588 9.2155 20 8.08663 20C6.95776 20 6.18167 18.9765 5.29974 17.7059C4.1356 15.9412 3.46533 13.8941 3.43005 11.7412C3.43005 8.24706 5.68779 6.37647 7.94552 6.37647C9.14495 6.37647 10.1327 7.15294 10.8735 7.15294C11.5791 7.15294 12.7079 6.34118 14.0485 6.34118C15.4595 6.30588 16.8001 6.97647 17.6115 8.14118ZM13.4135 4.85882C14.0132 4.15294 14.3307 3.27059 14.366 2.35294C14.366 2.24706 14.366 2.10588 14.3307 2C13.3076 2.10588 12.3552 2.6 11.6849 3.37647C11.0852 4.04706 10.7324 4.89412 10.6971 5.81176C10.6971 5.91765 10.6971 6.02353 10.7324 6.12941C10.803 6.12941 10.9088 6.16471 10.9794 6.16471C11.9318 6.09412 12.8138 5.6 13.4135 4.85882Z" fill="black"/>
</svg>
