<svg width="19" height="18" viewBox="0 0 19 18" fill="none" xmlns="http://www.w3.org/2000/svg">
<path d="M11.9013 2.25C9.91472 2.25 8.30268 3.86204 8.30268 5.84866C8.30268 7.83528 9.91472 9.44733 11.9013 9.44733C13.888 9.44733 15.5 7.83528 15.5 5.84866C15.5 3.86204 13.888 2.25 11.9013 2.25Z" fill="black"/>
<path d="M5.72743 9.79515C4.50334 9.79515 3.5 10.7918 3.5 12.0226C3.5 13.2533 4.49666 14.25 5.72743 14.25C6.95151 14.25 7.95485 13.2533 7.95485 12.0226C7.95485 10.7918 6.95151 9.79515 5.72743 9.79515Z" fill="black"/>
<path d="M12.5903 12.1965C11.5535 12.1965 10.7107 13.0393 10.7107 14.0761C10.7107 15.1129 11.5535 15.9557 12.5903 15.9557C13.6271 15.9557 14.4699 15.1129 14.4699 14.0761C14.4699 13.0393 13.6271 12.1965 12.5903 12.1965Z" fill="black"/>
</svg>
