<svg width="22" height="22" viewBox="0 0 22 22" fill="none" xmlns="http://www.w3.org/2000/svg">
<path d="M6.90694 12.9713C6.62725 12.9713 6.39531 12.7394 6.39531 12.4597V9.53315C6.39531 9.25346 6.62725 9.02153 6.90694 9.02153C7.18663 9.02153 7.41856 9.25346 7.41856 9.53315V12.4597C7.41856 12.7462 7.18663 12.9713 6.90694 12.9713Z" fill="black"/>
<path d="M8.95345 13.9468C8.67376 13.9468 8.44182 13.7148 8.44182 13.4352V8.56444C8.44182 8.28475 8.67376 8.05281 8.95345 8.05281C9.23314 8.05281 9.46508 8.28475 9.46508 8.56444V13.4352C9.46508 13.7217 9.23314 13.9468 8.95345 13.9468Z" fill="black"/>
<path d="M11 14.9223C10.7203 14.9223 10.4883 14.6904 10.4883 14.4107V7.58898C10.4883 7.30929 10.7203 7.07736 11 7.07736C11.2796 7.07736 11.5116 7.30929 11.5116 7.58898V14.4107C11.5116 14.6904 11.2796 14.9223 11 14.9223Z" fill="black"/>
<path d="M13.0465 13.9468C12.7668 13.9468 12.5348 13.7148 12.5348 13.4352V8.56444C12.5348 8.28475 12.7668 8.05281 13.0465 8.05281C13.3262 8.05281 13.5581 8.28475 13.5581 8.56444V13.4352C13.5581 13.7217 13.3262 13.9468 13.0465 13.9468Z" fill="black"/>
<path d="M15.093 12.9713C14.8133 12.9713 14.5814 12.7394 14.5814 12.4597V9.53315C14.5814 9.25346 14.8133 9.02153 15.093 9.02153C15.3727 9.02153 15.6046 9.25346 15.6046 9.53315V12.4597C15.6046 12.7462 15.3727 12.9713 15.093 12.9713Z" fill="black"/>
<path d="M13.0465 18.3332H8.95345C5.24926 18.3332 3.66663 16.7505 3.66663 13.0463V8.95333C3.66663 5.24914 5.24926 3.6665 8.95345 3.6665H13.0465C16.7507 3.6665 18.3333 5.24914 18.3333 8.95333V13.0463C18.3333 16.7505 16.7507 18.3332 13.0465 18.3332ZM8.95345 4.68976C5.80864 4.68976 4.68988 5.80852 4.68988 8.95333V13.0463C4.68988 16.1912 5.80864 17.3099 8.95345 17.3099H13.0465C16.1913 17.3099 17.31 16.1912 17.31 13.0463V8.95333C17.31 5.80852 16.1913 4.68976 13.0465 4.68976H8.95345Z" fill="black"/>
</svg>
