<svg width="22" height="22" viewBox="0 0 22 22" fill="none" xmlns="http://www.w3.org/2000/svg">
<path d="M13.0465 18.3332H8.95345C7.07748 18.3332 5.71314 16.9688 5.71314 15.0929V6.90681C5.71314 5.03085 7.07748 3.6665 8.95345 3.6665H13.0465C14.9224 3.6665 16.2868 5.03085 16.2868 6.90681V15.0929C16.2868 16.9688 14.9224 18.3332 13.0465 18.3332ZM8.95345 4.68976C7.41856 4.68976 6.73639 5.8017 6.73639 6.90681V15.0929C6.73639 16.198 7.41856 17.3099 8.95345 17.3099H13.0465C14.5814 17.3099 15.2635 16.198 15.2635 15.0929V6.90681C15.2635 5.8017 14.5814 4.68976 13.0465 4.68976H8.95345Z" fill="black"/>
<path d="M15.7752 14.247H6.22477C5.94508 14.247 5.71314 14.015 5.71314 13.7353C5.71314 13.4557 5.94508 13.2237 6.22477 13.2237H15.7752C16.0548 13.2237 16.2868 13.4557 16.2868 13.7353C16.2868 14.015 16.0548 14.247 15.7752 14.247Z" fill="black"/>
<path d="M4.17825 16.9688C3.89856 16.9688 3.66663 16.7369 3.66663 16.4572V5.54247C3.66663 5.26278 3.89856 5.03085 4.17825 5.03085C4.45794 5.03085 4.68988 5.26278 4.68988 5.54247V16.4572C4.68988 16.7369 4.45794 16.9688 4.17825 16.9688Z" fill="black"/>
<path d="M17.8217 16.9688C17.542 16.9688 17.31 16.7369 17.31 16.4572V5.54247C17.31 5.26278 17.542 5.03085 17.8217 5.03085C18.1014 5.03085 18.3333 5.26278 18.3333 5.54247V16.4572C18.3333 16.7369 18.1014 16.9688 17.8217 16.9688Z" fill="black"/>
</svg>
