<svg width="22" height="22" viewBox="0 0 22 22" fill="none" xmlns="http://www.w3.org/2000/svg">
<path d="M8.60797 11.5826C8.3279 11.5826 8.09564 11.3504 8.09564 11.0703V7.80501C8.09564 7.52493 8.3279 7.29268 8.60797 7.29268C8.88805 7.29268 9.1203 7.52493 9.1203 7.80501V11.0703C9.1203 11.3504 8.88805 11.5826 8.60797 11.5826Z" fill="black"/>
<path d="M8.60797 18.4137C8.3279 18.4137 8.09564 18.1814 8.09564 17.9014V15.852C8.09564 15.572 8.3279 15.3397 8.60797 15.3397C8.88805 15.3397 9.1203 15.572 9.1203 15.852V17.9014C9.1203 18.1814 8.88805 18.4137 8.60797 18.4137Z" fill="black"/>
<path d="M13.3897 18.4137C13.1097 18.4137 12.8774 18.1814 12.8774 17.9014V7.80501C12.8774 7.52493 13.1097 7.29268 13.3897 7.29268C13.6698 7.29268 13.9021 7.52493 13.9021 7.80501V17.9014C13.9021 18.1814 13.6698 18.4137 13.3897 18.4137Z" fill="black"/>
<path d="M8.47129 8.23537H6.9343C6.73619 8.23537 6.56543 8.12608 6.47663 7.94847C6.38782 7.77087 6.40832 7.56595 6.52445 7.40883C6.65424 7.23806 6.72937 7.01945 6.72937 6.79402V6.17925C6.72937 5.96065 6.65424 5.74204 6.52445 5.56443C6.40832 5.40732 6.38782 5.2024 6.47663 5.02479C6.56543 4.85402 6.74303 4.73786 6.9343 4.73786H8.47129C9.43447 4.73786 10.2132 5.51663 10.2132 6.47982C10.2132 6.95116 10.0288 7.38835 9.69406 7.71624C9.37983 8.05096 8.94263 8.23537 8.47129 8.23537ZM7.71305 7.21071H8.47129C8.66256 7.21071 8.84018 7.13557 8.96997 7.00578C9.11342 6.86916 9.18857 6.69155 9.18857 6.49345C9.18857 6.09725 8.86749 5.7762 8.47129 5.7762H7.71305C7.74037 5.91282 7.75403 6.04942 7.75403 6.18604V6.80086C7.75403 6.93748 7.74037 7.07408 7.71305 7.21071Z" fill="black"/>
<path d="M5.7046 8.85018C5.25374 8.85018 4.65262 8.70671 4.02416 8.14656C3.81239 7.95529 3.66211 7.61376 3.66211 7.31319V5.7147C3.66211 5.44828 3.78507 5.13406 3.96268 4.94962C4.59797 4.287 5.25375 4.14355 5.69094 4.13672C5.69777 4.13672 5.7046 4.13672 5.71143 4.13672C6.25109 4.13672 6.78391 4.35532 7.15962 4.73786C7.22793 4.80617 7.29625 4.88816 7.35773 4.97013C7.61048 5.30486 7.75403 5.74202 7.75403 6.18604V6.80086C7.75403 7.24488 7.61046 7.68206 7.34405 8.03044C7.0025 8.48813 6.4765 8.78186 5.90952 8.83651C5.84804 8.84334 5.77291 8.85018 5.7046 8.85018ZM5.7046 5.16138C5.69777 5.16138 5.69777 5.16138 5.69094 5.16138C5.34256 5.16821 5.00099 5.33902 4.69359 5.66008C4.69359 5.66008 4.67993 5.70788 4.67993 5.72837V7.32003C4.67993 7.33369 4.70042 7.3815 4.71408 7.402C5.06247 7.70939 5.44501 7.86651 5.80706 7.82552C6.09396 7.7982 6.34673 7.65472 6.52433 7.42247C6.65412 7.25169 6.72926 7.03312 6.72926 6.80769V6.19288C6.72926 5.97429 6.65412 5.75572 6.52433 5.57811C6.49018 5.52346 6.45601 5.49611 6.42869 5.46195C6.23742 5.27068 5.97784 5.16138 5.7046 5.16138Z" fill="black"/>
<path d="M15.0633 8.23537H13.5263C13.055 8.23537 12.6178 8.05096 12.2899 7.71624C11.9688 7.40201 11.7844 6.96479 11.7844 6.49345C11.7844 5.53027 12.5631 4.75153 13.5263 4.75153H15.0633C15.2546 4.75153 15.4322 4.86082 15.521 5.03843C15.6098 5.2092 15.5893 5.42099 15.4731 5.57811C15.3433 5.74889 15.2682 5.96746 15.2682 6.19288V6.80769C15.2682 7.03312 15.3433 7.24486 15.4731 7.42247C15.5893 7.57958 15.6098 7.78454 15.521 7.96215C15.439 8.1261 15.2614 8.23537 15.0633 8.23537ZM13.5263 5.7762C13.1301 5.7762 12.809 6.09725 12.809 6.49345C12.809 6.68472 12.8842 6.86236 13.014 6.99215C13.1506 7.1356 13.3282 7.21071 13.5263 7.21071H14.2845C14.2572 7.07408 14.2436 6.93748 14.2436 6.80086V6.18604C14.2436 6.04942 14.2572 5.91282 14.2845 5.7762H13.5263Z" fill="black"/>
<path d="M16.2931 8.85018C16.218 8.85018 16.1497 8.84334 16.0813 8.84334C15.5144 8.7887 14.9952 8.49496 14.6468 8.03728C14.3804 7.6889 14.2369 7.25172 14.2369 6.80769V6.19288C14.2369 5.74886 14.3804 5.31168 14.6468 4.96329C14.6946 4.89498 14.7629 4.81301 14.8312 4.7447C15.2138 4.36215 15.7398 4.14356 16.2795 4.14356C16.2863 4.14356 16.2931 4.14356 16.2999 4.14356C16.7371 4.15039 17.3929 4.29384 18.0282 4.95646C18.2058 5.1409 18.3288 5.45512 18.3288 5.72153V7.32003C18.3288 7.62059 18.1785 7.96212 17.9667 8.14656C17.3451 8.70671 16.744 8.85018 16.2931 8.85018ZM16.2931 5.16138C16.0199 5.16138 15.7535 5.27068 15.569 5.46195C15.5417 5.48927 15.5144 5.52344 15.487 5.5576C15.3436 5.74887 15.2684 5.96745 15.2684 6.18604V6.80086C15.2684 7.02628 15.3436 7.23806 15.4734 7.41567C15.651 7.64793 15.9037 7.79136 16.1906 7.82552C16.5527 7.86651 16.9352 7.70938 17.3041 7.38832C17.3041 7.38832 17.3178 7.34052 17.3246 7.32003V5.72837C17.3246 5.71471 17.3041 5.6669 17.2973 5.65324C17.0035 5.34584 16.662 5.17506 16.3136 5.17506C16.2999 5.16139 16.2999 5.16138 16.2931 5.16138Z" fill="black"/>
<path d="M8.60797 16.3644C7.76092 16.3644 7.07098 15.6744 7.07098 14.8274V12.0949C7.07098 11.2479 7.76092 10.558 8.60797 10.558C9.45503 10.558 10.145 11.2479 10.145 12.0949V14.8274C10.145 15.6744 9.45503 16.3644 8.60797 16.3644ZM8.60797 11.5826C8.3279 11.5826 8.09564 11.8149 8.09564 12.0949V14.8274C8.09564 15.1075 8.3279 15.3397 8.60797 15.3397C8.88805 15.3397 9.1203 15.1075 9.1203 14.8274V12.0949C9.1203 11.8149 8.88805 11.5826 8.60797 11.5826Z" fill="black"/>
</svg>
