<svg width="23" height="22" viewBox="0 0 23 22" fill="none" xmlns="http://www.w3.org/2000/svg">
<path d="M19.43 11.4465C19.43 10.8792 19.3791 10.3337 19.2845 9.8101H11.75V12.9046H16.0555C15.87 13.9046 15.3064 14.7519 14.4591 15.3192V17.3265H17.0445C18.5573 15.9337 19.43 13.8828 19.43 11.4465Z" fill="#4285F4"/>
<path d="M11.75 19.2646C13.91 19.2646 15.7209 18.5483 17.0445 17.3265L14.4591 15.3192C13.7427 15.7992 12.8264 16.0828 11.75 16.0828C9.66636 16.0828 7.90273 14.6756 7.27364 12.7846H4.60091V14.8574C5.91727 17.4719 8.62273 19.2646 11.75 19.2646Z" fill="#34A853"/>
<path d="M7.27364 12.7846C7.11364 12.3046 7.02273 11.7919 7.02273 11.2646C7.02273 10.7374 7.11364 10.2246 7.27364 9.74465V7.67192H4.60091C4.04091 8.78673 3.74951 10.0171 3.75 11.2646C3.75 12.5556 4.05909 13.7774 4.60091 14.8574L7.27364 12.7846Z" fill="#FBBC05"/>
<path d="M11.75 6.44647C12.9245 6.44647 13.9791 6.8501 14.8082 7.64283L17.1027 5.34828C15.7173 4.05738 13.9064 3.26465 11.75 3.26465C8.62273 3.26465 5.91727 5.05738 4.60091 7.67192L7.27364 9.74465C7.90273 7.85374 9.66636 6.44647 11.75 6.44647Z" fill="#EA4335"/>
</svg>
