<svg width="22" height="22" viewBox="0 0 22 22" fill="none" xmlns="http://www.w3.org/2000/svg">
<path d="M14.8338 9.37627H11.2524C10.9727 9.37627 10.7407 9.14433 10.7407 8.86464C10.7407 8.58495 10.9727 8.35301 11.2524 8.35301H14.8338C15.1134 8.35301 15.3454 8.58495 15.3454 8.86464C15.3454 9.14433 15.1203 9.37627 14.8338 9.37627Z" fill="black"/>
<path d="M7.67101 9.89468C7.54139 9.89468 7.41178 9.84693 7.30946 9.74461L6.79783 9.23298C6.6 9.03515 6.6 8.70771 6.79783 8.50988C6.99566 8.31205 7.3231 8.31205 7.52093 8.50988L7.67101 8.65996L8.84434 7.48662C9.04217 7.28879 9.36961 7.28879 9.56744 7.48662C9.76527 7.68445 9.76527 8.01189 9.56744 8.20972L8.03256 9.74461C7.93705 9.84011 7.80744 9.89468 7.67101 9.89468Z" fill="black"/>
<path d="M14.8338 14.1515H11.2524C10.9727 14.1515 10.7407 13.9195 10.7407 13.6398C10.7407 13.3601 10.9727 13.1282 11.2524 13.1282H14.8338C15.1134 13.1282 15.3454 13.3601 15.3454 13.6398C15.3454 13.9195 15.1203 14.1515 14.8338 14.1515Z" fill="black"/>
<path d="M7.67101 14.6699C7.54139 14.6699 7.41178 14.6222 7.30946 14.5198L6.79783 14.0082C6.6 13.8104 6.6 13.4829 6.79783 13.2851C6.99566 13.0873 7.3231 13.0873 7.52093 13.2851L7.67101 13.4352L8.84434 12.2619C9.04217 12.064 9.36961 12.064 9.56744 12.2619C9.76527 12.4597 9.76527 12.7871 9.56744 12.985L8.03256 14.5198C7.93705 14.6153 7.80744 14.6699 7.67101 14.6699Z" fill="black"/>
<path d="M13.0465 18.3332H8.95345C5.24926 18.3332 3.66663 16.7505 3.66663 13.0463V8.95333C3.66663 5.24914 5.24926 3.6665 8.95345 3.6665H13.0465C16.7507 3.6665 18.3333 5.24914 18.3333 8.95333V13.0463C18.3333 16.7505 16.7507 18.3332 13.0465 18.3332ZM8.95345 4.68976C5.80864 4.68976 4.68988 5.80852 4.68988 8.95333V13.0463C4.68988 16.1912 5.80864 17.3099 8.95345 17.3099H13.0465C16.1913 17.3099 17.31 16.1912 17.31 13.0463V8.95333C17.31 5.80852 16.1913 4.68976 13.0465 4.68976H8.95345Z" fill="black"/>
</svg>
