<svg width="16" height="18" viewBox="0 0 16 18" fill="none" xmlns="http://www.w3.org/2000/svg">
<path d="M10.5116 18H5.48839C1.7963 18 0.674438 16.8781 0.674438 13.186V4.81395C0.674438 1.12186 1.7963 0 5.48839 0H10.5116C14.2037 0 15.3256 1.12186 15.3256 4.81395V13.186C15.3256 16.8781 14.2037 18 10.5116 18ZM5.48839 1.25581C2.49118 1.25581 1.93025 1.82512 1.93025 4.81395V13.186C1.93025 16.1749 2.49118 16.7442 5.48839 16.7442H10.5116C13.5089 16.7442 14.0698 16.1749 14.0698 13.186V4.81395C14.0698 1.82512 13.5089 1.25581 10.5116 1.25581H5.48839Z" fill="black"/>
<path d="M9.67444 4.18605H6.3256C5.98235 4.18605 5.69769 3.9014 5.69769 3.55814C5.69769 3.21488 5.98235 2.93023 6.3256 2.93023H9.67444C10.0177 2.93023 10.3023 3.21488 10.3023 3.55814C10.3023 3.9014 10.0177 4.18605 9.67444 4.18605Z" fill="black"/>
<path d="M8.00018 15.5805C6.93693 15.5805 6.0746 14.7181 6.0746 13.6549C6.0746 12.5916 6.93693 11.7293 8.00018 11.7293C9.06344 11.7293 9.92577 12.5916 9.92577 13.6549C9.92577 14.7181 9.06344 15.5805 8.00018 15.5805ZM8.00018 12.9768C7.63181 12.9768 7.33042 13.2781 7.33042 13.6465C7.33042 14.0149 7.63181 14.3163 8.00018 14.3163C8.36856 14.3163 8.66995 14.0149 8.66995 13.6465C8.66995 13.2781 8.36856 12.9768 8.00018 12.9768Z" fill="black"/>
</svg>
