<svg width="22" height="22" viewBox="0 0 22 22" fill="none" xmlns="http://www.w3.org/2000/svg">
<path d="M13.3185 18.3484H13.2255C10.0485 18.3484 8.51726 17.0963 8.25251 14.2914C8.22389 13.998 8.43855 13.7332 8.73907 13.7046C9.02529 13.676 9.29719 13.8978 9.32581 14.1912C9.53332 16.438 10.5923 17.2751 13.2326 17.2751H13.3256C16.2379 17.2751 17.2682 16.2448 17.2682 13.3325V8.66726C17.2682 5.75504 16.2379 4.72467 13.3256 4.72467H13.2326C10.578 4.72467 9.51901 5.57615 9.32581 7.86587C9.29004 8.15923 9.0396 8.38105 8.73907 8.35243C8.43855 8.33096 8.22389 8.06621 8.24536 7.77285C8.48864 4.92502 10.027 3.65137 13.2255 3.65137H13.3185C16.8318 3.65137 18.3344 5.15399 18.3344 8.66726V13.3325C18.3344 16.8458 16.8318 18.3484 13.3185 18.3484Z" fill="black"/>
<path d="M13.1468 11.5366H5.00398C4.71062 11.5366 4.46733 11.2933 4.46733 10.9999C4.46733 10.7065 4.71062 10.4633 5.00398 10.4633H13.1468C13.4401 10.4633 13.6834 10.7065 13.6834 10.9999C13.6834 11.2933 13.4401 11.5366 13.1468 11.5366Z" fill="black"/>
<path d="M6.59963 13.9336C6.46368 13.9336 6.32772 13.8835 6.22039 13.7762L3.82335 11.3791C3.61585 11.1716 3.61585 10.8282 3.82335 10.6207L6.22039 8.22363C6.4279 8.01613 6.77136 8.01613 6.97886 8.22363C7.18636 8.43114 7.18636 8.77459 6.97886 8.9821L4.96105 10.9999L6.97886 13.0177C7.18636 13.2252 7.18636 13.5687 6.97886 13.7762C6.87869 13.8835 6.73558 13.9336 6.59963 13.9336Z" fill="black"/>
</svg>
