<svg width="25" height="24" viewBox="0 0 25 24" xmlns="http://www.w3.org/2000/svg">
<path opacity="0.4" d="M20.5625 10.7516L19.778 14.0979C19.1055 16.9878 17.7766 18.1566 15.2789 17.9165C14.8786 17.8844 14.4464 17.8124 13.982 17.7003L12.6371 17.3801C9.29887 16.5876 8.26617 14.9384 9.0507 11.5922L9.83523 8.23792C9.99534 7.55746 10.1875 6.96506 10.4276 6.47673C11.3643 4.53942 12.9573 4.01906 15.6312 4.65149L16.9681 4.9637C20.3223 5.74823 21.347 7.40535 20.5625 10.7516Z"/>
<path d="M15.2789 17.9163C14.7826 18.2525 14.1582 18.5327 13.3976 18.7809L12.1328 19.1972C8.95463 20.2219 7.2815 19.3653 6.2488 16.1871L5.22411 13.025C4.19942 9.84684 5.04799 8.1657 8.22614 7.14101L9.491 6.72473C9.81922 6.62066 10.1314 6.5326 10.4276 6.47656C10.1875 6.96489 9.99534 7.55729 9.83523 8.23775L9.0507 11.592C8.26617 14.9383 9.29887 16.5874 12.6371 17.3799L13.982 17.7002C14.4463 17.8122 14.8786 17.8843 15.2789 17.9163Z"/>
</svg>