<svg width="22" height="22" viewBox="0 0 22 22" fill="none" xmlns="http://www.w3.org/2000/svg">
<path d="M11.0009 19.0048C10.547 19.0048 10.0783 18.9676 9.60203 18.8857C6.328 18.3276 3.65668 15.6489 3.11349 12.36C2.68191 9.74819 3.49298 7.19593 5.34579 5.34312C7.19859 3.49032 9.75085 2.68669 12.3552 3.11083C15.6367 3.65402 18.3229 6.31789 18.8809 9.59193C19 10.3137 19.0298 11.0206 18.9702 11.6903V11.6977C18.9554 11.8689 18.9256 12.0326 18.8809 12.1963C18.8289 12.3823 18.6875 12.5237 18.5089 12.5832C18.3303 12.6427 18.1294 12.5981 17.9806 12.479C17.2811 11.8912 16.3882 11.5638 15.4655 11.5638C13.3076 11.5638 11.559 13.3199 11.559 15.4703C11.559 16.393 11.8864 17.2859 12.4743 17.9854C12.6008 18.1342 12.638 18.3276 12.5784 18.5137C12.5189 18.6997 12.3775 18.8336 12.1915 18.8857C12.0278 18.9304 11.8641 18.9601 11.693 18.975C11.4697 18.9973 11.2391 19.0048 11.0009 19.0048ZM11.0009 4.1228C9.1779 4.1228 7.45159 4.8297 6.14197 6.13931C4.5496 7.73168 3.85015 9.93421 4.2222 12.1814C4.69098 15.0015 6.97536 17.3082 9.7955 17.7845C10.242 17.8589 10.6661 17.9035 11.0753 17.8886C10.6735 17.152 10.4577 16.3186 10.4577 15.4703C10.4577 12.7023 12.7124 10.4476 15.4804 10.4476C16.3287 10.4476 17.1621 10.6634 17.8987 11.0652C17.9062 10.656 17.869 10.2319 17.7946 9.78539C17.3183 6.9727 15.0116 4.68088 12.1915 4.21954C11.7822 4.15257 11.3879 4.1228 11.0009 4.1228Z" fill="black"/>
<path d="M12.0511 18.9007C11.8874 18.9007 11.7312 18.8337 11.627 18.6998C10.868 17.7994 10.4439 16.6535 10.4439 15.4704C10.4439 12.7023 12.6985 10.4477 15.4666 10.4477C16.6497 10.4477 17.7956 10.8644 18.6959 11.6308C18.8671 11.7722 18.9341 12.0029 18.8745 12.2112C18.7406 12.6726 18.5025 13.0744 18.1602 13.4167L13.4128 18.164C13.0706 18.5063 12.6613 18.7444 12.2074 18.8783C12.1553 18.8932 12.1032 18.9007 12.0511 18.9007ZM15.4666 11.5639C13.3087 11.5639 11.56 13.3199 11.56 15.4704C11.56 16.2591 11.7982 17.0255 12.2372 17.6655C12.3786 17.5911 12.505 17.4943 12.6241 17.3753L17.3715 12.6279C17.4905 12.5089 17.5872 12.3824 17.6617 12.241C17.0217 11.802 16.2553 11.5639 15.4666 11.5639Z" fill="black"/>
</svg>
