<svg width="25" height="24" viewBox="0 0 25 24" xmlns="http://www.w3.org/2000/svg">
<path opacity="0.4" d="M10.2676 4.01636C8.17586 4.01636 6.47534 5.71688 6.47534 7.8086C6.47534 9.8604 8.08006 11.521 10.1718 11.5928C10.2356 11.5849 10.2995 11.5849 10.3474 11.5928C10.3634 11.5928 10.3714 11.5928 10.3873 11.5928C10.3953 11.5928 10.3953 11.5928 10.4033 11.5928C12.4471 11.521 14.0518 9.8604 14.0598 7.8086C14.0598 5.71688 12.3593 4.01636 10.2676 4.01636Z"/>
<path d="M14.3233 13.7165C12.0958 12.2315 8.46328 12.2315 6.21988 13.7165C5.20595 14.3951 4.64709 15.3132 4.64709 16.2952C4.64709 17.2772 5.20595 18.1874 6.21189 18.858C7.3296 19.6084 8.7986 19.9837 10.2676 19.9837C11.7366 19.9837 13.2056 19.6084 14.3233 18.858C15.3292 18.1794 15.8881 17.2692 15.8881 16.2793C15.8801 15.2973 15.3292 14.3871 14.3233 13.7165Z"/>
<path opacity="0.4" d="M19.0416 8.27961C19.1693 9.82843 18.0676 11.1857 16.5427 11.3693C16.5347 11.3693 16.5347 11.3693 16.5267 11.3693H16.5028C16.4549 11.3693 16.407 11.3693 16.367 11.3852C15.5926 11.4252 14.8821 11.1777 14.3472 10.7226C15.1695 9.98811 15.6405 8.88636 15.5447 7.68881C15.4888 7.04214 15.2653 6.45135 14.93 5.94838C15.2334 5.79669 15.5846 5.70088 15.9439 5.66895C17.5087 5.53323 18.9058 6.69884 19.0416 8.27961Z"/>
<path d="M20.6384 15.6646C20.5745 16.439 20.0795 17.1096 19.2492 17.5647C18.4509 18.0038 17.4449 18.2113 16.447 18.1874C17.0218 17.6685 17.3571 17.0218 17.421 16.3352C17.5008 15.3452 17.0298 14.3952 16.0877 13.6367C15.5528 13.2136 14.9301 12.8783 14.2515 12.6308C16.0159 12.1198 18.2353 12.4631 19.6005 13.5649C20.335 14.1556 20.7102 14.8981 20.6384 15.6646Z"/>
</svg>
