<svg width="25" height="24" viewBox="0 0 25 24" xmlns="http://www.w3.org/2000/svg">
<path opacity="0.4" d="M18.0527 6.73556L13.9162 4.34326C13.1241 3.88721 11.8839 3.88721 11.0918 4.34326L6.91531 6.75156C5.2591 7.8717 5.16309 8.03973 5.16309 9.82395V14.1685C5.16309 15.9527 5.2591 16.1287 6.94731 17.2649L11.0838 19.6572C11.4839 19.8892 11.9959 20.0012 12.5 20.0012C13.0041 20.0012 13.5161 19.8892 13.9082 19.6572L18.0847 17.2489C19.7409 16.1287 19.8369 15.9607 19.8369 14.1765V9.82395C19.8369 8.03973 19.7409 7.8717 18.0527 6.73556Z"/>
<path d="M12.5 14.6006C13.9361 14.6006 15.1003 13.4363 15.1003 12.0002C15.1003 10.5641 13.9361 9.3999 12.5 9.3999C11.0639 9.3999 9.89966 10.5641 9.89966 12.0002C9.89966 13.4363 11.0639 14.6006 12.5 14.6006Z"/>
</svg>
